<?xml version="1.0" encoding="UTF-8"?>
<svg version="1.1" xmlns="http://www.w3.org/2000/svg" width="246" height="52">
<path d="M0 0 C1.1653125 0.00515625 2.330625 0.0103125 3.53125 0.015625 C4.6965625 0.01046875 5.861875 0.0053125 7.0625 0 C10.03125 0.265625 10.03125 0.265625 12.03125 2.265625 C12.2265625 5.3046875 12.2265625 5.3046875 12.15625 8.890625 C12.13820312 10.07914063 12.12015625 11.26765625 12.1015625 12.4921875 C12.07835937 13.40742187 12.05515625 14.32265625 12.03125 15.265625 C10.71125 15.265625 9.39125 15.265625 8.03125 15.265625 C8.03125 13.285625 8.03125 11.305625 8.03125 9.265625 C5.06125 9.265625 2.09125 9.265625 -0.96875 9.265625 C-0.96875 11.245625 -0.96875 13.225625 -0.96875 15.265625 C-2.28875 15.265625 -3.60875 15.265625 -4.96875 15.265625 C-5.02261629 13.14089924 -5.06148071 11.01578848 -5.09375 8.890625 C-5.11695313 7.70726562 -5.14015625 6.52390625 -5.1640625 5.3046875 C-4.89775623 1.1609619 -4.1352273 0.36999402 0 0 Z M-0.96875 3.265625 C-0.96875 4.255625 -0.96875 5.245625 -0.96875 6.265625 C2.00125 6.265625 4.97125 6.265625 8.03125 6.265625 C8.03125 5.275625 8.03125 4.285625 8.03125 3.265625 C5.06125 3.265625 2.09125 3.265625 -0.96875 3.265625 Z " fill="#FEFEFE" transform="translate(150.96875,26.734375)"/>
<path d="M0 0 C1.38294718 0.01329757 2.76582404 0.03715018 4.1484375 0.0703125 C4.85484375 0.07933594 5.56125 0.08835937 6.2890625 0.09765625 C8.03399848 0.12123647 9.77876045 0.15710789 11.5234375 0.1953125 C11.5234375 1.1853125 11.5234375 2.1753125 11.5234375 3.1953125 C7.2334375 3.1953125 2.9434375 3.1953125 -1.4765625 3.1953125 C-1.4765625 4.1853125 -1.4765625 5.1753125 -1.4765625 6.1953125 C1.8234375 6.1953125 5.1234375 6.1953125 8.5234375 6.1953125 C8.5234375 7.1853125 8.5234375 8.1753125 8.5234375 9.1953125 C5.2234375 9.1953125 1.9234375 9.1953125 -1.4765625 9.1953125 C-1.4765625 10.1853125 -1.4765625 11.1753125 -1.4765625 12.1953125 C2.8134375 12.1953125 7.1034375 12.1953125 11.5234375 12.1953125 C11.5234375 13.1853125 11.5234375 14.1753125 11.5234375 15.1953125 C9.06481349 15.24915098 6.607362 15.28890288 4.1484375 15.3203125 C3.10042969 15.34544922 3.10042969 15.34544922 2.03125 15.37109375 C0.19446264 15.38875517 -1.64258213 15.29834511 -3.4765625 15.1953125 C-5.4765625 13.1953125 -5.4765625 13.1953125 -5.7421875 10.6640625 C-5.73703125 9.684375 -5.731875 8.7046875 -5.7265625 7.6953125 C-5.73171875 6.715625 -5.736875 5.7359375 -5.7421875 4.7265625 C-5.30565376 0.56665271 -4.06299562 0.22825818 0 0 Z " fill="#FEFEFE" transform="translate(189.4765625,26.8046875)"/>
<path d="M0 0 C1.38294718 0.01329757 2.76582404 0.03715018 4.1484375 0.0703125 C4.85484375 0.07933594 5.56125 0.08835937 6.2890625 0.09765625 C8.03399848 0.12123647 9.77876045 0.15710789 11.5234375 0.1953125 C11.5234375 1.1853125 11.5234375 2.1753125 11.5234375 3.1953125 C7.2334375 3.1953125 2.9434375 3.1953125 -1.4765625 3.1953125 C-1.4765625 4.1853125 -1.4765625 5.1753125 -1.4765625 6.1953125 C1.8234375 6.1953125 5.1234375 6.1953125 8.5234375 6.1953125 C8.5234375 7.1853125 8.5234375 8.1753125 8.5234375 9.1953125 C5.2234375 9.1953125 1.9234375 9.1953125 -1.4765625 9.1953125 C-1.4765625 10.1853125 -1.4765625 11.1753125 -1.4765625 12.1953125 C2.8134375 12.1953125 7.1034375 12.1953125 11.5234375 12.1953125 C11.5234375 13.1853125 11.5234375 14.1753125 11.5234375 15.1953125 C9.06481349 15.24915098 6.607362 15.28890288 4.1484375 15.3203125 C3.10042969 15.34544922 3.10042969 15.34544922 2.03125 15.37109375 C0.19446264 15.38875517 -1.64258213 15.29834511 -3.4765625 15.1953125 C-5.4765625 13.1953125 -5.4765625 13.1953125 -5.7421875 10.6640625 C-5.73703125 9.684375 -5.731875 8.7046875 -5.7265625 7.6953125 C-5.73171875 6.715625 -5.736875 5.7359375 -5.7421875 4.7265625 C-5.30565376 0.56665271 -4.06299562 0.22825818 0 0 Z " fill="#FEFEFE" transform="translate(43.4765625,26.8046875)"/>
<path d="M0 0 C1.38294718 0.01329757 2.76582404 0.03715018 4.1484375 0.0703125 C4.85484375 0.07933594 5.56125 0.08835937 6.2890625 0.09765625 C8.03399848 0.12123647 9.77876045 0.15710789 11.5234375 0.1953125 C11.5234375 1.1853125 11.5234375 2.1753125 11.5234375 3.1953125 C7.2334375 3.1953125 2.9434375 3.1953125 -1.4765625 3.1953125 C-1.4765625 4.1853125 -1.4765625 5.1753125 -1.4765625 6.1953125 C1.4934375 6.1953125 4.4634375 6.1953125 7.5234375 6.1953125 C7.5234375 7.1853125 7.5234375 8.1753125 7.5234375 9.1953125 C4.5534375 9.1953125 1.5834375 9.1953125 -1.4765625 9.1953125 C-1.4765625 10.1853125 -1.4765625 11.1753125 -1.4765625 12.1953125 C2.8134375 12.1953125 7.1034375 12.1953125 11.5234375 12.1953125 C11.5234375 13.1853125 11.5234375 14.1753125 11.5234375 15.1953125 C9.06481349 15.24915098 6.607362 15.28890288 4.1484375 15.3203125 C3.10042969 15.34544922 3.10042969 15.34544922 2.03125 15.37109375 C0.19446264 15.38875517 -1.64258213 15.29834511 -3.4765625 15.1953125 C-5.4765625 13.1953125 -5.4765625 13.1953125 -5.7421875 10.6640625 C-5.73703125 9.684375 -5.731875 8.7046875 -5.7265625 7.6953125 C-5.73171875 6.715625 -5.736875 5.7359375 -5.7421875 4.7265625 C-5.30565376 0.56665271 -4.06299562 0.22825818 0 0 Z " fill="#FEFEFE" transform="translate(132.4765625,26.8046875)"/>
<path d="M0 0 C1.32 0 2.64 0 4 0 C4 1.98 4 3.96 4 6 C6.97 6 9.94 6 13 6 C13 4.02 13 2.04 13 0 C14.32 0 15.64 0 17 0 C17 4.95 17 9.9 17 15 C15.68 15 14.36 15 13 15 C13 13.02 13 11.04 13 9 C10.03 9 7.06 9 4 9 C4 10.98 4 12.96 4 15 C2.68 15 1.36 15 0 15 C0 10.05 0 5.1 0 0 Z " fill="#FEFEFE" transform="translate(107,27)"/>
<path d="M0 0 C1.32 0 2.64 0 4 0 C4 1.98 4 3.96 4 6 C6.97 6 9.94 6 13 6 C13 4.02 13 2.04 13 0 C14.32 0 15.64 0 17 0 C17 4.95 17 9.9 17 15 C15.68 15 14.36 15 13 15 C13 13.02 13 11.04 13 9 C10.03 9 7.06 9 4 9 C4 10.98 4 12.96 4 15 C2.68 15 1.36 15 0 15 C0 10.05 0 5.1 0 0 Z " fill="#FEFEFE" transform="translate(75,27)"/>
<path d="M0 0 C1.1653125 0.00515625 2.330625 0.0103125 3.53125 0.015625 C4.6965625 0.01046875 5.861875 0.0053125 7.0625 0 C10.03125 0.265625 10.03125 0.265625 12.03125 2.265625 C12.2265625 5.3046875 12.2265625 5.3046875 12.15625 8.890625 C12.13820312 10.07914063 12.12015625 11.26765625 12.1015625 12.4921875 C12.07835937 13.40742187 12.05515625 14.32265625 12.03125 15.265625 C10.71125 15.265625 9.39125 15.265625 8.03125 15.265625 C8.03125 11.305625 8.03125 7.345625 8.03125 3.265625 C5.06125 3.265625 2.09125 3.265625 -0.96875 3.265625 C-0.96875 7.225625 -0.96875 11.185625 -0.96875 15.265625 C-2.28875 15.265625 -3.60875 15.265625 -4.96875 15.265625 C-5.02261629 13.14089924 -5.06148071 11.01578848 -5.09375 8.890625 C-5.11695313 7.70726562 -5.14015625 6.52390625 -5.1640625 5.3046875 C-4.89775623 1.1609619 -4.1352273 0.36999402 0 0 Z " fill="#FEFEFE" transform="translate(207.96875,26.734375)"/>
<path d="M0 0 C1.32 0 2.64 0 4 0 C4.33 3.96 4.66 7.92 5 12 C7.31 12 9.62 12 12 12 C12.33 8.04 12.66 4.08 13 0 C14.32 0 15.64 0 17 0 C17.37379162 9.53168636 17.37379162 9.53168636 15 14 C13.26150372 15.73849628 10.9213363 15.17216296 8.5625 15.1875 C7.57378906 15.20167969 6.58507812 15.21585938 5.56640625 15.23046875 C3 15 3 15 1 13 C0.5859375 9.9609375 0.5859375 9.9609375 0.375 6.375 C0.30023438 5.18648437 0.22546875 3.99796875 0.1484375 2.7734375 C0.09945312 1.85820312 0.05046875 0.94296875 0 0 Z " fill="#FEFEFE" transform="translate(165,27)"/>
<path d="M0 0 C1.27617188 0.02320312 2.55234375 0.04640625 3.8671875 0.0703125 C5.78917969 0.09738281 5.78917969 0.09738281 7.75 0.125 C9.23113281 0.15980469 9.23113281 0.15980469 10.7421875 0.1953125 C10.7421875 1.1853125 10.7421875 2.1753125 10.7421875 3.1953125 C6.7821875 3.1953125 2.8221875 3.1953125 -1.2578125 3.1953125 C-1.2578125 6.1653125 -1.2578125 9.1353125 -1.2578125 12.1953125 C2.7021875 12.1953125 6.6621875 12.1953125 10.7421875 12.1953125 C10.7421875 13.1853125 10.7421875 14.1753125 10.7421875 15.1953125 C8.45077464 15.24915771 6.15900562 15.28803337 3.8671875 15.3203125 C1.95292969 15.35511719 1.95292969 15.35511719 0 15.390625 C-3.2578125 15.1953125 -3.2578125 15.1953125 -5.2578125 13.1953125 C-5.5234375 10.6640625 -5.5234375 10.6640625 -5.5078125 7.6953125 C-5.51296875 6.715625 -5.518125 5.7359375 -5.5234375 4.7265625 C-5.1012387 0.7032563 -3.94547598 0.23653933 0 0 Z " fill="#FEFEFE" transform="translate(62.2578125,26.8046875)"/>
<path d="M0 0 C5.28 0 10.56 0 16 0 C16 0.99 16 1.98 16 3 C14.02 3 12.04 3 10 3 C10 6.96 10 10.92 10 15 C8.68 15 7.36 15 6 15 C6 11.04 6 7.08 6 3 C4.02 3 2.04 3 0 3 C0 2.01 0 1.02 0 0 Z " fill="#FEFEFE" transform="translate(20,27)"/>
</svg>
